<?xml version="1.0" standalone="no"?>
<!DOCTYPE svg PUBLIC "-//W3C//DTD SVG 20010904//EN"
 "http://www.w3.org/TR/2001/REC-SVG-20010904/DTD/svg10.dtd">
<svg version="1.0" xmlns="http://www.w3.org/2000/svg"
 width="300.000000pt" height="314.000000pt" viewBox="0 0 300.000000 314.000000"
 preserveAspectRatio="xMidYMid meet">
<metadata>
Created by potrace 1.10, written by Peter Selinger 2001-2011
</metadata>
<g transform="translate(0.000000,314.000000) scale(0.100000,-0.100000)"
fill="#000000" stroke="none">
<path d="M1422 2420 c-127 -23 -222 -69 -291 -140 -62 -64 -115 -195 -93 -228
10 -14 256 -47 273 -37 5 3 14 24 21 47 42 141 249 174 320 52 11 -19 18 -56
19 -104 l2 -75 -29 -2 c-302 -25 -432 -63 -534 -159 -88 -83 -132 -218 -111
-349 27 -174 136 -271 314 -282 148 -9 254 25 356 114 29 25 53 44 55 42 85
-119 116 -149 154 -149 22 0 222 165 222 183 0 5 -21 41 -47 80 l-48 69 -6
332 c-5 311 -7 334 -28 388 -39 100 -125 169 -254 204 -67 18 -227 26 -295 14z
m253 -44 c96 -21 161 -54 208 -106 68 -75 69 -86 76 -450 7 -346 7 -347 62
-426 17 -25 28 -51 25 -59 -7 -18 -156 -145 -171 -145 -7 0 -42 32 -78 70 -36
39 -71 70 -78 70 -6 0 -41 -22 -78 -49 -110 -81 -165 -100 -290 -103 -135 -3
-244 58 -292 164 -20 45 -24 68 -23 149 0 84 4 104 28 153 76 156 186 209 510
245 116 13 136 30 136 110 0 76 -15 125 -51 166 -51 57 -140 74 -236 44 -39
-13 -101 -73 -119 -116 -17 -41 -31 -44 -134 -30 -77 11 -85 14 -88 35 -6 37
45 127 96 173 86 76 207 116 357 118 44 0 107 -6 140 -13z"/>
<path d="M1529 1780 c-84 -18 -158 -56 -187 -98 -24 -34 -52 -114 -52 -150 0
-73 49 -155 111 -188 62 -31 147 -13 210 47 46 44 64 74 83 139 20 66 21 209
3 234 -21 28 -83 34 -168 16z m139 -132 c-3 -102 -6 -118 -33 -167 -40 -72
-83 -103 -149 -109 -72 -6 -112 16 -138 75 -27 62 -21 148 16 203 40 61 150
105 275 109 l33 1 -4 -112z"/>
<path d="M2271 1164 c-59 -16 -124 -51 -116 -63 2 -4 62 -6 132 -3 121 4 129
3 147 -17 19 -21 19 -22 -1 -94 -11 -39 -29 -93 -39 -119 -32 -84 5 -77 67 11
48 71 72 141 73 215 1 61 1 61 -34 73 -48 16 -163 15 -229 -3z m213 -24 c27
-10 28 -13 22 -58 -7 -55 -34 -139 -46 -147 -5 -3 -5 9 0 27 20 79 19 102 -5
132 -20 24 -32 30 -79 34 -31 2 -54 8 -51 12 7 11 129 12 159 0z"/>
<path d="M480 1126 c0 -19 141 -126 252 -192 167 -98 396 -174 593 -196 56 -6
163 -8 245 -5 229 9 425 58 625 157 120 59 171 99 162 124 -9 22 -33 19 -137
-19 -516 -189 -1095 -158 -1598 86 -130 63 -142 67 -142 45z m360 -165 c276
-94 575 -134 837 -112 189 16 404 62 546 115 37 14 67 22 67 17 0 -12 -143
-87 -229 -120 -312 -120 -662 -137 -976 -46 -148 43 -366 146 -420 198 -13 12
-6 10 175 -52z"/>
<path d="M2277 113 c-18 -17 -5 -32 26 -30 17 0 42 -3 55 -7 18 -6 22 -4 22
14 0 18 -3 19 -20 10 -12 -6 -20 -7 -20 -1 0 5 -8 8 -17 6 -10 -1 -23 1 -29 6
-6 5 -14 6 -17 2z"/>
<path d="M2680 101 c0 -15 7 -18 33 -18 19 1 34 6 34 13 0 6 -8 9 -18 7 -9 -3
-20 0 -23 6 -11 17 -26 13 -26 -8z"/>
<path d="M2470 95 c0 -8 7 -15 15 -15 8 0 18 0 22 -1 4 0 9 5 12 12 2 8 -3 10
-18 6 -11 -3 -19 -1 -15 4 3 5 0 9 -5 9 -6 0 -11 -7 -11 -15z"/>
<path d="M2574 95 c-18 -13 -18 -14 -1 -15 9 0 17 6 17 13 0 9 2 9 8 0 4 -7
16 -10 27 -8 11 2 23 4 28 4 4 1 7 4 7 9 0 13 -68 11 -86 -3z"/>
<path d="M2761 99 c-1 -13 9 -17 39 -17 24 -1 40 4 40 11 0 7 4 6 10 -3 8 -13
10 -12 10 2 0 15 -6 17 -37 12 -21 -3 -41 -8 -45 -10 -3 -2 -9 2 -11 8 -4 8
-6 7 -6 -3z"/>
</g>
</svg>
